# xmcd
# 
# Track frame offsets:
#     150
#     22184
#     44259
#     64734
#     82658
#     92084
#     127946
#     147509
#     161659
#     181584
#     213299
#     230684
#     246284
#     264509
#     278984
# 
# Disc length: 4012
# 
# Revision: 3
# Processed by: cddbd v1.5.2PL0 Copyright (c) Steve Scherf et al.
# Submitted via: BonkEnc v1.0.8
# 
DISCID=ce0faa0f
DTITLE=Various Artist - Bluescorner 2 CD1
DYEAR=2005
DGENRE=Blues
TTITLE0=B.B. King - When Love Comes To Town
TTITLE1=Stevie Ray Vaughan - The Things I Used To Do
TTITLE2=Alvin Lee - Real Live Blues
TTITLE3=Robert Cray - Smoking Gun
TTITLE4=Muddy Waters - No Escape From The Blues
TTITLE5=Allman Brothers Band - Get On With Your Life
TTITLE6=Alvin "Youngblood" Hart - Moonlight Mile
TTITLE7=Albert Collins - Ice Pick
TTITLE8=Jimmy Vaughan - Two Wings
TTITLE9=Canned Heat - On The Road Again
TTITLE10=Fleetwood Mac - Need Your Love So Bad
TTITLE11=Albert King - Born Under A Bad Sign
TTITLE12=Calvin Russell - This Is My Life
TTITLE13=Bobby Womack - It's All Over Now
TTITLE14=Buddy Guy - Strange Brew
EXTD=
EXTT0=
EXTT1=
EXTT2=
EXTT3=
EXTT4=
EXTT5=
EXTT6=
EXTT7=
EXTT8=
EXTT9=
EXTT10=
EXTT11=
EXTT12=
EXTT13=
EXTT14=
PLAYORDER=
